<?xml version="1.0" standalone="no"?>
<!DOCTYPE svg PUBLIC "-//W3C//DTD SVG 20010904//EN"
 "http://www.w3.org/TR/2001/REC-SVG-20010904/DTD/svg10.dtd">
<svg version="1.0" xmlns="http://www.w3.org/2000/svg"
 width="512.000000pt" height="512.000000pt" viewBox="0 0 512.000000 512.000000"
 preserveAspectRatio="xMidYMid meet">

<g transform="translate(0.000000,512.000000) scale(0.100000,-0.100000)"
fill="#000000" stroke="none">
<path d="M3453 5073 c-61 -21 -136 -92 -164 -155 -22 -50 -24 -67 -27 -294
l-4 -242 -66 30 c-181 82 -464 155 -692 179 -152 16 -451 6 -590 -20 -185 -34
-399 -96 -493 -143 -66 -33 -69 -102 -6 -137 25 -14 33 -12 124 23 208 80 431
124 665 133 329 12 651 -50 956 -184 l102 -45 4 -161 c3 -148 6 -167 29 -217
29 -63 76 -112 134 -143 31 -16 63 -22 143 -25 l102 -4 0 -72 c1 -141 66 -216
189 -216 41 0 60 8 125 50 43 28 81 48 86 45 5 -3 32 -45 60 -94 261 -457 345
-986 239 -1506 -169 -823 -830 -1479 -1662 -1650 -275 -57 -568 -56 -847 1
-257 53 -453 131 -726 290 -31 18 -38 17 -298 -10 -277 -30 -350 -30 -409 0
-75 38 -108 90 -109 169 0 29 23 175 52 324 l53 272 -61 127 c-383 795 -231
1753 378 2385 127 133 207 201 351 300 118 82 131 106 88 161 -32 41 -69 35
-164 -29 -535 -355 -892 -923 -992 -1575 -21 -141 -24 -481 -5 -615 33 -230
105 -477 193 -664 27 -57 49 -112 49 -122 0 -10 -21 -123 -47 -251 -31 -156
-46 -258 -46 -308 1 -137 59 -239 170 -297 114 -61 184 -64 511 -28 l222 25
48 -30 c91 -56 318 -159 437 -199 493 -164 1033 -159 1504 15 307 114 575 282
810 509 411 398 643 894 692 1485 36 436 -86 944 -319 1329 l-51 85 69 48 68
48 284 0 283 0 60 29 c64 30 101 66 138 135 22 41 22 45 22 546 l0 505 -30 53
c-32 59 -66 91 -129 125 -40 21 -51 22 -432 25 -372 3 -392 2 -414 -16 -33
-27 -33 -87 -1 -113 22 -18 47 -19 390 -19 348 0 368 -1 399 -20 18 -11 41
-34 52 -52 20 -32 20 -48 18 -498 -3 -447 -4 -466 -23 -492 -41 -55 -57 -58
-372 -58 l-289 0 -45 -28 c-24 -16 -118 -81 -208 -145 -91 -65 -172 -117 -182
-117 -25 0 -29 20 -29 136 0 98 -2 107 -25 129 -23 24 -30 25 -150 25 -137 0
-166 8 -204 56 -21 26 -21 35 -21 498 0 455 1 472 20 504 32 53 68 62 244 62
135 0 157 2 177 19 17 13 23 29 23 56 0 27 -6 43 -23 56 -21 17 -41 19 -195
18 -125 0 -182 -5 -213 -16z"/>
<path d="M3815 4628 c-49 -26 -58 -69 -24 -112 l20 -26 399 0 399 0 20 26 c34
43 24 86 -26 112 -30 16 -759 16 -788 0z"/>
<path d="M3805 4215 c-14 -13 -25 -36 -25 -50 0 -14 11 -37 25 -50 l24 -25
391 0 391 0 24 25 c14 13 25 36 25 50 0 14 -11 37 -25 50 l-24 25 -391 0 -391
0 -24 -25z"/>
<path d="M1797 3970 c-222 -56 -302 -333 -142 -494 25 -24 65 -52 90 -62 l45
-19 0 -107 0 -108 -37 0 c-63 0 -167 -27 -229 -58 -149 -75 -253 -223 -273
-386 l-6 -51 -60 3 c-214 11 -413 -127 -476 -329 -35 -111 -21 -256 33 -363
27 -52 112 -142 164 -172 l42 -25 5 -252 c3 -197 8 -265 22 -312 62 -218 230
-376 447 -421 40 -8 73 -16 73 -17 11 -31 66 -93 102 -114 47 -27 51 -28 203
-28 141 0 159 2 197 22 75 40 123 120 123 205 0 53 -48 138 -98 173 -44 30
-44 30 -207 33 -147 3 -167 1 -203 -17 -36 -18 -83 -64 -107 -105 -9 -15 -14
-15 -69 -1 -174 46 -299 189 -326 370 -5 39 -10 148 -10 243 l0 172 60 2 c33
0 66 1 73 2 7 1 14 -18 18 -50 26 -211 187 -385 398 -430 97 -20 1176 -20
1274 1 197 41 359 213 390 413 l11 69 66 -5 c305 -21 553 282 475 581 -57 220
-268 374 -485 354 l-56 -5 -11 68 c-20 130 -102 262 -205 333 -59 41 -173 87
-213 87 l-25 0 0 114 0 114 37 13 c22 7 62 37 95 69 45 45 60 69 73 115 56
191 -80 378 -274 379 -82 0 -128 -15 -190 -64 -72 -57 -106 -132 -106 -230 0
-62 5 -84 27 -126 31 -59 104 -128 154 -144 l34 -12 0 -109 0 -109 -390 0
-390 0 0 109 0 109 34 12 c52 17 122 84 153 147 70 145 7 322 -140 391 -54 26
-136 35 -190 22z m142 -169 c43 -30 63 -65 63 -113 3 -139 -166 -201 -250 -93
-97 123 60 295 187 206z m952 -17 c111 -106 6 -279 -142 -235 -70 21 -113 104
-90 173 33 100 158 133 232 62z m0 -768 c107 -25 206 -105 252 -204 22 -47 22
-51 22 -592 0 -543 0 -545 -22 -593 -34 -71 -113 -150 -186 -183 l-62 -29
-579 -3 c-372 -2 -597 1 -628 7 -111 24 -203 93 -255 192 l-28 54 0 555 0 555
28 53 c51 96 149 172 251 192 22 4 291 8 596 9 429 0 568 -2 611 -13z m-1682
-482 l31 -6 0 -309 0 -308 -44 -6 c-129 -20 -264 53 -327 177 -26 51 -36 164
-20 223 40 150 211 258 360 229z m2336 -28 c141 -64 217 -232 170 -378 -41
-131 -162 -223 -294 -223 -111 0 -102 -30 -99 317 l3 302 25 8 c42 12 140 -1
195 -26z m-1601 -1582 c43 -43 22 -108 -38 -120 -19 -3 -77 -4 -129 -2 -108 3
-137 19 -137 71 0 59 18 67 161 67 103 0 131 -3 143 -16z"/>
<path d="M1812 2635 c-93 -29 -172 -113 -172 -183 0 -31 37 -72 66 -72 27 0
60 23 86 60 32 46 86 66 144 55 28 -5 52 -21 90 -61 58 -60 80 -65 120 -31 34
29 35 72 3 123 -61 99 -213 148 -337 109z"/>
<path d="M2597 2630 c-86 -33 -145 -92 -162 -162 -6 -22 -1 -33 23 -58 43 -42
67 -39 121 19 25 27 56 54 68 60 54 28 139 2 175 -53 37 -57 79 -69 122 -35
34 26 34 68 2 124 -62 105 -225 154 -349 105z"/>
<path d="M2045 1945 c-30 -29 -31 -54 -6 -104 46 -90 145 -144 263 -145 126 0
229 62 272 165 12 29 12 39 1 66 -26 60 -96 57 -139 -7 -33 -50 -75 -72 -137
-72 -60 1 -101 22 -129 67 -37 60 -84 72 -125 30z"/>
</g>
</svg>
